<svg width="131" height="46" viewBox="0 0 131 46" fill="none" xmlns="http://www.w3.org/2000/svg">
<g clip-path="url(#clip0_97_386)">
<path d="M15.3123 10.3125V12.5H17.0361C17.5681 12.5 18.0913 12.64 18.5533 12.9042L20.8108 14.1923C20.8785 14.2308 20.9508 14.25 21.0278 14.25H24.9373C25.2854 14.25 25.6193 14.3883 25.8654 14.6344C26.1116 14.8806 26.2498 15.2144 26.2498 15.5625C26.2498 15.9106 26.1116 16.2444 25.8654 16.4906C25.6193 16.7367 25.2854 16.875 24.9373 16.875H24.1901L27.8843 25.086C27.9935 25.3289 28.0262 25.5993 27.9781 25.8612C27.9299 26.1232 27.8032 26.3643 27.6148 26.5525L26.6873 25.625L27.6131 26.5543L27.6113 26.5578L27.6078 26.5612L27.5973 26.5718L27.5868 26.5805L27.5693 26.598L27.4906 26.668C27.1208 26.9772 26.7206 27.2397 26.2901 27.4555C25.4728 27.865 24.2898 28.25 22.7498 28.25C21.524 28.2643 20.3117 27.9923 19.2096 27.4555C18.7799 27.241 18.377 26.9767 18.0091 26.668L17.9303 26.598L17.9023 26.5718L17.8918 26.5612L17.8848 26.5543V26.5525C17.6964 26.3643 17.5698 26.1232 17.5216 25.8612C17.4735 25.5993 17.5062 25.3289 17.6153 25.086L21.3113 16.875H21.0278C20.4941 16.875 19.9708 16.7368 19.5088 16.4707L17.2513 15.1827C17.1853 15.1449 17.1105 15.125 17.0343 15.125H15.3123V31.75H19.6873C20.0354 31.75 20.3693 31.8883 20.6154 32.1344C20.8616 32.3806 20.9998 32.7144 20.9998 33.0625C20.9998 33.4106 20.8616 33.7444 20.6154 33.9906C20.3693 34.2367 20.0354 34.375 19.6873 34.375H8.31234C7.96424 34.375 7.6304 34.2367 7.38426 33.9906C7.13812 33.7444 6.99984 33.4106 6.99984 33.0625C6.99984 32.7144 7.13812 32.3806 7.38426 32.1344C7.6304 31.8883 7.96424 31.75 8.31234 31.75H12.6873V15.125H10.9653C10.8892 15.125 10.8144 15.1449 10.7483 15.1827L8.49259 16.4725C8.02884 16.735 7.50559 16.875 6.97184 16.875H6.68834L10.3843 25.086C10.4935 25.3289 10.5262 25.5993 10.4781 25.8612C10.4299 26.1232 10.3032 26.3643 10.1148 26.5525L9.18734 25.625L10.1131 26.5543L10.1113 26.5578L10.1078 26.5612L10.0973 26.5718L10.0693 26.598L9.99059 26.668C9.62075 26.9772 9.22059 27.2397 8.79009 27.4555C7.97284 27.865 6.78984 28.25 5.24984 28.25C4.024 28.2643 2.81174 27.9923 1.70959 27.4555C1.27993 27.241 0.876997 26.9767 0.509087 26.668L0.430337 26.598L0.402337 26.5718L0.391837 26.5612L0.384837 26.5543V26.5525C0.196435 26.3643 0.0697537 26.1232 0.0216176 25.8612C-0.0265186 25.5993 0.00616813 25.3289 0.115337 25.086L3.81134 16.875H3.06234C2.71424 16.875 2.3804 16.7367 2.13426 16.4906C1.88812 16.2444 1.74984 15.9106 1.74984 15.5625C1.74984 15.2144 1.88812 14.8806 2.13426 14.6344C2.3804 14.3883 2.71424 14.25 3.06234 14.25H6.97184C7.04856 14.2503 7.124 14.2303 7.19059 14.1923L9.44459 12.9025C9.90834 12.64 10.4316 12.5 10.9653 12.5H12.6873V10.3125C12.6873 9.9644 12.8256 9.63056 13.0718 9.38442C13.3179 9.13828 13.6517 9 13.9998 9C14.3479 9 14.6818 9.13828 14.9279 9.38442C15.1741 9.63056 15.3123 9.9644 15.3123 10.3125ZM20.4661 25.1473C20.9648 25.3835 21.7226 25.625 22.7498 25.625C23.7771 25.625 24.5348 25.3835 25.0336 25.1473L22.7498 20.0723L20.4661 25.1473ZM2.96609 25.1473C3.46484 25.3835 4.22259 25.625 5.24984 25.625C6.27709 25.625 7.03484 25.3835 7.53359 25.1473L5.24984 20.0723L2.96609 25.1473Z" fill="url(#paint0_linear_97_386)"/>
</g>
<path d="M41.456 32.5V30.96C41.9787 30.9413 42.38 30.8573 42.66 30.708C42.94 30.54 43.136 30.26 43.248 29.868C43.36 29.4573 43.416 28.8973 43.416 28.188V17.016C43.416 16.5493 43.4253 16.1013 43.444 15.672C43.4813 15.2427 43.5093 14.9067 43.528 14.664C43.2107 14.6827 42.8467 14.7013 42.436 14.72C42.0253 14.72 41.6987 14.7293 41.456 14.748V12.9H48.904V14.44C48.4 14.4587 47.9987 14.552 47.7 14.72C47.42 14.8693 47.224 15.14 47.112 15.532C47 15.924 46.944 16.484 46.944 17.212V28.356C46.944 28.86 46.9347 29.3267 46.916 29.756C46.8973 30.1667 46.8693 30.4933 46.832 30.736L51.088 30.708C52.208 30.708 53.076 30.3347 53.692 29.588C54.308 28.8227 54.616 27.656 54.616 26.088H56.184L56.016 32.5H41.456ZM64.5203 32.948C63.1763 32.948 61.9817 32.6493 60.9363 32.052C59.891 31.436 59.079 30.5773 58.5003 29.476C57.9217 28.356 57.6323 27.04 57.6323 25.528C57.6323 24.2213 57.9217 22.9987 58.5003 21.86C59.079 20.7213 59.891 19.8067 60.9363 19.116C62.0003 18.4067 63.2323 18.052 64.6323 18.052C65.4163 18.052 66.1723 18.164 66.9003 18.388C67.6283 18.612 68.2817 18.9853 68.8603 19.508C69.439 20.0307 69.8963 20.7213 70.2323 21.58C70.587 22.4387 70.755 23.484 70.7363 24.716L61.3283 24.884C61.3283 26.0413 61.459 27.068 61.7203 27.964C62.0003 28.8413 62.4483 29.5413 63.0643 30.064C63.6803 30.568 64.4923 30.82 65.5003 30.82C65.9483 30.82 66.4243 30.7453 66.9283 30.596C67.451 30.428 67.9643 30.1853 68.4683 29.868C68.9723 29.532 69.4203 29.1213 69.8123 28.636L70.8763 29.616C70.2603 30.512 69.579 31.2027 68.8323 31.688C68.0857 32.1733 67.339 32.5 66.5923 32.668C65.8457 32.8547 65.155 32.948 64.5203 32.948ZM61.4683 23.204H67.2923C67.2737 22.4573 67.1617 21.832 66.9563 21.328C66.7697 20.8053 66.4897 20.4133 66.1163 20.152C65.743 19.872 65.2857 19.732 64.7443 19.732C63.8297 19.732 63.0923 20.04 62.5323 20.656C61.991 21.2533 61.6363 22.1027 61.4683 23.204ZM79.1941 40.088C77.5514 40.088 76.2448 39.9107 75.2741 39.556C74.3221 39.2013 73.6314 38.7347 73.2021 38.156C72.7914 37.596 72.5861 37.008 72.5861 36.392C72.5861 35.9253 72.6888 35.4867 72.8941 35.076C73.0994 34.684 73.3981 34.3107 73.7901 33.956C74.1821 33.6013 74.6581 33.3213 75.2181 33.116C74.5088 32.9107 73.9954 32.6027 73.6781 32.192C73.3608 31.7627 73.2021 31.2773 73.2021 30.736C73.2021 30.1947 73.4168 29.6253 73.8461 29.028C74.2941 28.4307 74.9941 28.0107 75.9461 27.768C75.1434 27.4133 74.4808 26.8907 73.9581 26.2C73.4541 25.5093 73.1928 24.688 73.1741 23.736C73.1554 22.616 73.4354 21.6267 74.0141 20.768C74.6114 19.9093 75.3861 19.2467 76.3381 18.78C77.2901 18.2947 78.2794 18.052 79.3061 18.052C79.8288 18.052 80.4074 18.1267 81.0421 18.276C81.6768 18.4253 82.2368 18.6587 82.7221 18.976C82.9088 18.416 83.1701 17.9027 83.5061 17.436C83.8421 16.9507 84.2341 16.5587 84.6821 16.26C85.1488 15.9613 85.6621 15.812 86.2221 15.812C86.8008 15.812 87.2394 15.9613 87.5381 16.26C87.8368 16.5587 87.9861 16.96 87.9861 17.464C87.9861 17.6693 87.9394 17.8933 87.8461 18.136C87.7528 18.3787 87.5941 18.584 87.3701 18.752C87.1461 18.92 86.8381 19.004 86.4461 19.004C86.1474 19.004 85.8674 18.9013 85.6061 18.696C85.3634 18.4907 85.2141 18.2387 85.1581 17.94C84.8408 18.0147 84.5514 18.248 84.2901 18.64C84.0474 19.032 83.8981 19.4053 83.8421 19.76C84.3461 20.208 84.7381 20.74 85.0181 21.356C85.2981 21.9533 85.4381 22.5973 85.4381 23.288C85.4381 24.352 85.1394 25.304 84.5421 26.144C83.9634 26.9653 83.1981 27.6093 82.2461 28.076C81.3128 28.5427 80.3048 28.776 79.2221 28.776C78.9421 28.776 78.6621 28.7667 78.3821 28.748C78.1021 28.7107 77.8034 28.692 77.4861 28.692C76.9821 28.692 76.5621 28.7947 76.2261 29C75.9088 29.2053 75.7688 29.476 75.8061 29.812C75.8621 30.204 76.1981 30.4653 76.8141 30.596C77.4301 30.708 78.3821 30.8013 79.6701 30.876C81.1074 30.9507 82.3581 31.128 83.4221 31.408C84.4861 31.688 85.3074 32.1267 85.8861 32.724C86.4648 33.34 86.7541 34.18 86.7541 35.244C86.7541 36.028 86.5301 36.7187 86.0821 37.316C85.6341 37.9133 85.0368 38.4173 84.2901 38.828C83.5621 39.2387 82.7501 39.5467 81.8541 39.752C80.9768 39.976 80.0901 40.088 79.1941 40.088ZM79.7261 38.436C81.1448 38.436 82.2274 38.1747 82.9741 37.652C83.7208 37.1293 84.0941 36.56 84.0941 35.944C84.0941 35.4587 83.9168 35.0667 83.5621 34.768C83.2074 34.488 82.7034 34.2733 82.0501 34.124C81.3968 33.9747 80.5848 33.8813 79.6141 33.844C79.1848 33.8253 78.7088 33.7973 78.1861 33.76C77.6634 33.7413 77.1874 33.6947 76.7581 33.62C76.4034 33.8813 76.1234 34.208 75.9181 34.6C75.7314 34.992 75.6381 35.384 75.6381 35.776C75.6008 36.5787 75.9554 37.2227 76.7021 37.708C77.4488 38.1933 78.4568 38.436 79.7261 38.436ZM79.3341 27.208C79.8941 27.208 80.3608 27.0493 80.7341 26.732C81.1261 26.396 81.4154 25.976 81.6021 25.472C81.8074 24.9493 81.9101 24.3987 81.9101 23.82C81.9101 23.1107 81.8168 22.4387 81.6301 21.804C81.4434 21.1507 81.1541 20.628 80.7621 20.236C80.3701 19.8253 79.8754 19.62 79.2781 19.62C78.4381 19.62 77.7848 19.9747 77.3181 20.684C76.8701 21.3747 76.6461 22.196 76.6461 23.148C76.6461 23.876 76.7488 24.5573 76.9541 25.192C77.1781 25.808 77.4861 26.3027 77.8781 26.676C78.2888 27.0307 78.7741 27.208 79.3341 27.208ZM96.4073 32.5C96.3513 32.22 96.314 31.9867 96.2953 31.8C96.2953 31.5947 96.286 31.3613 96.2673 31.1C95.6326 31.7347 94.9513 32.2013 94.2233 32.5C93.514 32.7987 92.7766 32.948 92.0113 32.948C90.742 32.948 89.762 32.6027 89.0713 31.912C88.3993 31.2213 88.0633 30.372 88.0633 29.364C88.0633 28.468 88.306 27.712 88.7913 27.096C89.2766 26.4613 89.9113 25.948 90.6953 25.556C91.4793 25.1453 92.3473 24.8373 93.2993 24.632C94.2513 24.408 95.194 24.2867 96.1273 24.268V22.728C96.1273 22.1867 96.062 21.692 95.9313 21.244C95.8193 20.7773 95.6046 20.4133 95.2873 20.152C94.97 19.872 94.5033 19.732 93.8873 19.732C93.4766 19.7507 93.0566 19.844 92.6273 20.012C92.2166 20.1613 91.89 20.404 91.6473 20.74C91.7966 20.908 91.89 21.0947 91.9273 21.3C91.9646 21.4867 91.9833 21.6547 91.9833 21.804C91.9833 22.14 91.8526 22.4947 91.5913 22.868C91.33 23.2227 90.91 23.3907 90.3313 23.372C89.8273 23.3533 89.4353 23.176 89.1553 22.84C88.894 22.504 88.7633 22.1027 88.7633 21.636C88.7633 20.9267 89.0153 20.3107 89.5193 19.788C90.042 19.2467 90.742 18.8267 91.6193 18.528C92.4966 18.2107 93.4766 18.052 94.5593 18.052C96.1646 18.052 97.3966 18.472 98.2553 19.312C99.114 20.152 99.534 21.496 99.5153 23.344C99.5153 23.9973 99.5153 24.5947 99.5153 25.136C99.5153 25.6587 99.506 26.1907 99.4873 26.732C99.4873 27.2547 99.4873 27.8427 99.4873 28.496C99.4873 28.776 99.478 29.1307 99.4593 29.56C99.4406 29.9707 99.4126 30.3813 99.3753 30.792C99.7113 30.7547 100.047 30.736 100.383 30.736C100.738 30.7173 101.027 30.6987 101.251 30.68V32.5H96.4073ZM96.0993 25.92C95.5393 25.9573 94.9886 26.0507 94.4473 26.2C93.906 26.3307 93.4206 26.5173 92.9913 26.76C92.562 27.0027 92.2166 27.3107 91.9553 27.684C91.7126 28.0387 91.6006 28.4493 91.6193 28.916C91.638 29.4947 91.8246 29.924 92.1793 30.204C92.534 30.4653 92.9446 30.596 93.4113 30.596C93.9526 30.596 94.438 30.484 94.8673 30.26C95.3153 30.036 95.726 29.7373 96.0993 29.364C96.0993 29.1773 96.0993 28.9813 96.0993 28.776C96.0993 28.5707 96.0993 28.3653 96.0993 28.16C96.0993 27.8987 96.0993 27.572 96.0993 27.18C96.0993 26.788 96.0993 26.368 96.0993 25.92ZM101.825 32.5V30.904C102.348 30.904 102.768 30.7547 103.085 30.456C103.402 30.1573 103.664 29.7653 103.869 29.28C104.074 28.776 104.289 28.216 104.513 27.6L110.085 12.396H111.597L117.673 27.88C117.785 28.1973 117.934 28.6453 118.121 29.224C118.308 29.8027 118.41 30.3067 118.429 30.736C118.746 30.7173 119.054 30.6987 119.353 30.68C119.652 30.6613 119.913 30.652 120.137 30.652V32.5H112.997V30.96C113.576 30.96 113.968 30.8387 114.173 30.596C114.378 30.3533 114.462 30.036 114.425 29.644C114.406 29.252 114.313 28.8507 114.145 28.44L113.445 26.536L106.949 26.648L106.333 28.524C106.221 28.8413 106.09 29.2053 105.941 29.616C105.792 30.008 105.642 30.3627 105.493 30.68C105.829 30.6613 106.193 30.6427 106.585 30.624C106.996 30.6053 107.322 30.596 107.565 30.596V32.5H101.825ZM107.565 24.856H112.829L111.317 20.74C111.093 20.1053 110.878 19.4707 110.673 18.836C110.486 18.1827 110.328 17.5853 110.197 17.044H110.141C110.029 17.4173 109.889 17.9027 109.721 18.5C109.572 19.0973 109.357 19.7787 109.077 20.544L107.565 24.856ZM129.021 14.44C128.517 14.4587 128.116 14.552 127.817 14.72C127.537 14.8693 127.341 15.14 127.229 15.532C127.117 15.924 127.061 16.484 127.061 17.212V28.328C127.061 28.832 127.052 29.2987 127.033 29.728C127.015 30.1573 126.987 30.4933 126.949 30.736C127.267 30.7173 127.631 30.6987 128.041 30.68C128.452 30.6613 128.779 30.652 129.021 30.652V32.5H121.573V30.96C122.096 30.9413 122.497 30.8573 122.777 30.708C123.057 30.54 123.253 30.26 123.365 29.868C123.477 29.4573 123.533 28.8973 123.533 28.188V17.016C123.533 16.5493 123.543 16.1013 123.561 15.672C123.599 15.2427 123.627 14.9067 123.645 14.664C123.328 14.6827 122.964 14.7013 122.553 14.72C122.143 14.72 121.816 14.7293 121.573 14.748V12.9H129.021V14.44Z" fill="url(#paint1_linear_97_386)"/>
<defs>
<linearGradient id="paint0_linear_97_386" x1="-2.2574e-08" y1="21.6067" x2="27.9997" y2="21.6067" gradientUnits="userSpaceOnUse">
<stop stop-color="#2268EA"/>
<stop offset="1" stop-color="#0F9FE8"/>
</linearGradient>
<linearGradient id="paint1_linear_97_386" x1="40" y1="22.9459" x2="131" y2="22.9458" gradientUnits="userSpaceOnUse">
<stop stop-color="#2268EA"/>
<stop offset="1" stop-color="#0F9FE8"/>
</linearGradient>
<clipPath id="clip0_97_386">
<rect width="28" height="28" fill="white" transform="translate(0 9)"/>
</clipPath>
</defs>
</svg>
